<svg width="184" height="17" viewBox="0 0 184 17" fill="none" xmlns="http://www.w3.org/2000/svg">
<path d="M5.744 13.544L0.816 9.16V7.928L5.264 11.8V2.216H6.224V11.784L10.672 7.928V9.16L5.744 13.544ZM25.4609 13H23.9531V2.85938H18.3438V13H16.8438V1.625H25.4609V13ZM27.5859 8.69531C27.5859 7.86719 27.7474 7.1224 28.0703 6.46094C28.3984 5.79948 28.8516 5.28906 29.4297 4.92969C30.013 4.57031 30.6771 4.39062 31.4219 4.39062C32.5729 4.39062 33.5026 4.78906 34.2109 5.58594C34.9245 6.38281 35.2812 7.44271 35.2812 8.76562V8.86719C35.2812 9.6901 35.1224 10.4297 34.8047 11.0859C34.4922 11.737 34.0417 12.2448 33.4531 12.6094C32.8698 12.974 32.1979 13.1562 31.4375 13.1562C30.2917 13.1562 29.362 12.7578 28.6484 11.9609C27.9401 11.1641 27.5859 10.1094 27.5859 8.79688V8.69531ZM29.0391 8.86719C29.0391 9.80469 29.2552 10.5573 29.6875 11.125C30.125 11.6927 30.7083 11.9766 31.4375 11.9766C32.1719 11.9766 32.7552 11.6901 33.1875 11.1172C33.6198 10.5391 33.8359 9.73177 33.8359 8.69531C33.8359 7.76823 33.6146 7.01823 33.1719 6.44531C32.7344 5.86719 32.151 5.57812 31.4219 5.57812C30.7083 5.57812 30.1328 5.86198 29.6953 6.42969C29.2578 6.9974 29.0391 7.8099 29.0391 8.86719ZM36.4609 11.8203L36.9609 11.2031C37.5234 10.474 37.8438 9.38021 37.9219 7.92188L38.0547 4.54688H43.5V11.8203H44.5859V15.4844H43.1406V13H37.2422V15.4844H35.7969L35.8047 11.8203H36.4609ZM38.1719 11.8203H42.0547V5.88281H39.4531L39.3672 7.89844C39.2786 9.58073 38.8802 10.888 38.1719 11.8203ZM53.3281 8.86719C53.3281 10.1536 53.0339 11.1901 52.4453 11.9766C51.8568 12.763 51.0599 13.1562 50.0547 13.1562C49.0286 13.1562 48.2214 12.8307 47.6328 12.1797V16.25H46.1875V4.54688H47.5078L47.5781 5.48438C48.1667 4.75521 48.9844 4.39062 50.0312 4.39062C51.0469 4.39062 51.849 4.77344 52.4375 5.53906C53.0312 6.30469 53.3281 7.36979 53.3281 8.73438V8.86719ZM51.8828 8.70312C51.8828 7.75 51.6797 6.9974 51.2734 6.44531C50.8672 5.89323 50.3099 5.61719 49.6016 5.61719C48.7266 5.61719 48.0703 6.00521 47.6328 6.78125V10.8203C48.0651 11.5911 48.7266 11.9766 49.6172 11.9766C50.3099 11.9766 50.8594 11.7031 51.2656 11.1562C51.6771 10.6042 51.8828 9.78646 51.8828 8.70312ZM54.7891 8.69531C54.7891 7.86719 54.9505 7.1224 55.2734 6.46094C55.6016 5.79948 56.0547 5.28906 56.6328 4.92969C57.2161 4.57031 57.8802 4.39062 58.625 4.39062C59.776 4.39062 60.7057 4.78906 61.4141 5.58594C62.1276 6.38281 62.4844 7.44271 62.4844 8.76562V8.86719C62.4844 9.6901 62.3255 10.4297 62.0078 11.0859C61.6953 11.737 61.2448 12.2448 60.6562 12.6094C60.0729 12.974 59.401 13.1562 58.6406 13.1562C57.4948 13.1562 56.5651 12.7578 55.8516 11.9609C55.1432 11.1641 54.7891 10.1094 54.7891 8.79688V8.69531ZM56.2422 8.86719C56.2422 9.80469 56.4583 10.5573 56.8906 11.125C57.3281 11.6927 57.9115 11.9766 58.6406 11.9766C59.375 11.9766 59.9583 11.6901 60.3906 11.1172C60.8229 10.5391 61.0391 9.73177 61.0391 8.69531C61.0391 7.76823 60.8177 7.01823 60.375 6.44531C59.9375 5.86719 59.3542 5.57812 58.625 5.57812C57.9115 5.57812 57.3359 5.86198 56.8984 6.42969C56.4609 6.9974 56.2422 7.8099 56.2422 8.86719ZM68.0078 5.03125C69.0703 5.03125 69.9193 5.38802 70.5547 6.10156C71.1953 6.8099 71.5156 7.74479 71.5156 8.90625V9.03906C71.5156 9.83594 71.362 10.5495 71.0547 11.1797C70.7474 11.8047 70.3047 12.2917 69.7266 12.6406C69.1536 12.9844 68.4922 13.1562 67.7422 13.1562C66.6068 13.1562 65.6927 12.7786 65 12.0234C64.3073 11.263 63.9609 10.2448 63.9609 8.96875V8.26562C63.9609 6.48958 64.2891 5.07812 64.9453 4.03125C65.6068 2.98438 66.5807 2.34635 67.8672 2.11719C68.5964 1.98698 69.0885 1.82812 69.3438 1.64062C69.599 1.45312 69.7266 1.19531 69.7266 0.867188H70.9141C70.9141 1.51823 70.7656 2.02604 70.4688 2.39062C70.1771 2.75521 69.7083 3.01302 69.0625 3.16406L67.9844 3.40625C67.125 3.60938 66.4792 3.95312 66.0469 4.4375C65.6198 4.91667 65.3411 5.55729 65.2109 6.35938C65.9766 5.47396 66.9089 5.03125 68.0078 5.03125ZM67.7266 6.21875C67.0182 6.21875 66.4557 6.45833 66.0391 6.9375C65.6224 7.41146 65.4141 8.07031 65.4141 8.91406V9.03906C65.4141 9.94531 65.6224 10.6641 66.0391 11.1953C66.4609 11.7214 67.0286 11.9844 67.7422 11.9844C68.4609 11.9844 69.0286 11.7188 69.4453 11.1875C69.862 10.6562 70.0703 9.88021 70.0703 8.85938C70.0703 8.0625 69.8594 7.42448 69.4375 6.94531C69.0208 6.46094 68.4505 6.21875 67.7266 6.21875ZM79.9062 13H78.4609V9.39062H74.5781V13H73.125V4.54688H74.5781V8.21094H78.4609V4.54688H79.9062V13ZM85.7422 13.1562C84.5964 13.1562 83.6641 12.7812 82.9453 12.0312C82.2266 11.276 81.8672 10.2682 81.8672 9.00781V8.74219C81.8672 7.90365 82.026 7.15625 82.3438 6.5C82.6667 5.83854 83.1146 5.32292 83.6875 4.95312C84.2656 4.57812 84.8906 4.39062 85.5625 4.39062C86.6615 4.39062 87.5156 4.7526 88.125 5.47656C88.7344 6.20052 89.0391 7.23698 89.0391 8.58594V9.1875H83.3125C83.3333 10.0208 83.5755 10.6953 84.0391 11.2109C84.5078 11.7214 85.1016 11.9766 85.8203 11.9766C86.3307 11.9766 86.763 11.8724 87.1172 11.6641C87.4714 11.4557 87.7812 11.1797 88.0469 10.8359L88.9297 11.5234C88.2214 12.612 87.1589 13.1562 85.7422 13.1562ZM85.5625 5.57812C84.9792 5.57812 84.4896 5.79167 84.0938 6.21875C83.6979 6.64062 83.4531 7.23438 83.3594 8H87.5938V7.89062C87.5521 7.15625 87.3542 6.58854 87 6.1875C86.6458 5.78125 86.1667 5.57812 85.5625 5.57812ZM94.2266 13.1562C93.0807 13.1562 92.1484 12.7812 91.4297 12.0312C90.7109 11.276 90.3516 10.2682 90.3516 9.00781V8.74219C90.3516 7.90365 90.5104 7.15625 90.8281 6.5C91.151 5.83854 91.599 5.32292 92.1719 4.95312C92.75 4.57812 93.375 4.39062 94.0469 4.39062C95.1458 4.39062 96 4.7526 96.6094 5.47656C97.2188 6.20052 97.5234 7.23698 97.5234 8.58594V9.1875H91.7969C91.8177 10.0208 92.0599 10.6953 92.5234 11.2109C92.9922 11.7214 93.5859 11.9766 94.3047 11.9766C94.8151 11.9766 95.2474 11.8724 95.6016 11.6641C95.9557 11.4557 96.2656 11.1797 96.5312 10.8359L97.4141 11.5234C96.7057 12.612 95.6432 13.1562 94.2266 13.1562ZM94.0469 5.57812C93.4635 5.57812 92.974 5.79167 92.5781 6.21875C92.1823 6.64062 91.9375 7.23438 91.8438 8H96.0781V7.89062C96.0365 7.15625 95.8385 6.58854 95.4844 6.1875C95.1302 5.78125 94.651 5.57812 94.0469 5.57812ZM102.789 8.69531C102.789 7.86719 102.951 7.1224 103.273 6.46094C103.602 5.79948 104.055 5.28906 104.633 4.92969C105.216 4.57031 105.88 4.39062 106.625 4.39062C107.776 4.39062 108.706 4.78906 109.414 5.58594C110.128 6.38281 110.484 7.44271 110.484 8.76562V8.86719C110.484 9.6901 110.326 10.4297 110.008 11.0859C109.695 11.737 109.245 12.2448 108.656 12.6094C108.073 12.974 107.401 13.1562 106.641 13.1562C105.495 13.1562 104.565 12.7578 103.852 11.9609C103.143 11.1641 102.789 10.1094 102.789 8.79688V8.69531ZM104.242 8.86719C104.242 9.80469 104.458 10.5573 104.891 11.125C105.328 11.6927 105.911 11.9766 106.641 11.9766C107.375 11.9766 107.958 11.6901 108.391 11.1172C108.823 10.5391 109.039 9.73177 109.039 8.69531C109.039 7.76823 108.818 7.01823 108.375 6.44531C107.938 5.86719 107.354 5.57812 106.625 5.57812C105.911 5.57812 105.336 5.86198 104.898 6.42969C104.461 6.9974 104.242 7.8099 104.242 8.86719ZM116.008 5.03125C117.07 5.03125 117.919 5.38802 118.555 6.10156C119.195 6.8099 119.516 7.74479 119.516 8.90625V9.03906C119.516 9.83594 119.362 10.5495 119.055 11.1797C118.747 11.8047 118.305 12.2917 117.727 12.6406C117.154 12.9844 116.492 13.1562 115.742 13.1562C114.607 13.1562 113.693 12.7786 113 12.0234C112.307 11.263 111.961 10.2448 111.961 8.96875V8.26562C111.961 6.48958 112.289 5.07812 112.945 4.03125C113.607 2.98438 114.581 2.34635 115.867 2.11719C116.596 1.98698 117.089 1.82812 117.344 1.64062C117.599 1.45312 117.727 1.19531 117.727 0.867188H118.914C118.914 1.51823 118.766 2.02604 118.469 2.39062C118.177 2.75521 117.708 3.01302 117.062 3.16406L115.984 3.40625C115.125 3.60938 114.479 3.95312 114.047 4.4375C113.62 4.91667 113.341 5.55729 113.211 6.35938C113.977 5.47396 114.909 5.03125 116.008 5.03125ZM115.727 6.21875C115.018 6.21875 114.456 6.45833 114.039 6.9375C113.622 7.41146 113.414 8.07031 113.414 8.91406V9.03906C113.414 9.94531 113.622 10.6641 114.039 11.1953C114.461 11.7214 115.029 11.9844 115.742 11.9844C116.461 11.9844 117.029 11.7188 117.445 11.1875C117.862 10.6562 118.07 9.88021 118.07 8.85938C118.07 8.0625 117.859 7.42448 117.438 6.94531C117.021 6.46094 116.451 6.21875 115.727 6.21875ZM124.727 8.69531C124.727 7.86719 124.888 7.1224 125.211 6.46094C125.539 5.79948 125.992 5.28906 126.57 4.92969C127.154 4.57031 127.818 4.39062 128.562 4.39062C129.714 4.39062 130.643 4.78906 131.352 5.58594C132.065 6.38281 132.422 7.44271 132.422 8.76562V8.86719C132.422 9.6901 132.263 10.4297 131.945 11.0859C131.633 11.737 131.182 12.2448 130.594 12.6094C130.01 12.974 129.339 13.1562 128.578 13.1562C127.432 13.1562 126.503 12.7578 125.789 11.9609C125.081 11.1641 124.727 10.1094 124.727 8.79688V8.69531ZM126.18 8.86719C126.18 9.80469 126.396 10.5573 126.828 11.125C127.266 11.6927 127.849 11.9766 128.578 11.9766C129.312 11.9766 129.896 11.6901 130.328 11.1172C130.76 10.5391 130.977 9.73177 130.977 8.69531C130.977 7.76823 130.755 7.01823 130.312 6.44531C129.875 5.86719 129.292 5.57812 128.562 5.57812C127.849 5.57812 127.273 5.86198 126.836 6.42969C126.398 6.9974 126.18 7.8099 126.18 8.86719ZM137.945 5.03125C139.008 5.03125 139.857 5.38802 140.492 6.10156C141.133 6.8099 141.453 7.74479 141.453 8.90625V9.03906C141.453 9.83594 141.299 10.5495 140.992 11.1797C140.685 11.8047 140.242 12.2917 139.664 12.6406C139.091 12.9844 138.43 13.1562 137.68 13.1562C136.544 13.1562 135.63 12.7786 134.938 12.0234C134.245 11.263 133.898 10.2448 133.898 8.96875V8.26562C133.898 6.48958 134.227 5.07812 134.883 4.03125C135.544 2.98438 136.518 2.34635 137.805 2.11719C138.534 1.98698 139.026 1.82812 139.281 1.64062C139.536 1.45312 139.664 1.19531 139.664 0.867188H140.852C140.852 1.51823 140.703 2.02604 140.406 2.39062C140.115 2.75521 139.646 3.01302 139 3.16406L137.922 3.40625C137.062 3.60938 136.417 3.95312 135.984 4.4375C135.557 4.91667 135.279 5.55729 135.148 6.35938C135.914 5.47396 136.846 5.03125 137.945 5.03125ZM137.664 6.21875C136.956 6.21875 136.393 6.45833 135.977 6.9375C135.56 7.41146 135.352 8.07031 135.352 8.91406V9.03906C135.352 9.94531 135.56 10.6641 135.977 11.1953C136.398 11.7214 136.966 11.9844 137.68 11.9844C138.398 11.9844 138.966 11.7188 139.383 11.1875C139.799 10.6562 140.008 9.88021 140.008 8.85938C140.008 8.0625 139.797 7.42448 139.375 6.94531C138.958 6.46094 138.388 6.21875 137.664 6.21875ZM142.219 4.54688H146.172V7.46094H148.367C149.326 7.47135 150.083 7.72135 150.641 8.21094C151.198 8.70052 151.477 9.36458 151.477 10.2031C151.477 11.0469 151.19 11.724 150.617 12.2344C150.044 12.7448 149.273 13 148.305 13H144.727V5.73438H142.219V4.54688ZM146.172 8.64062V11.8203H148.32C148.862 11.8203 149.281 11.6823 149.578 11.4062C149.875 11.125 150.023 10.7422 150.023 10.2578C150.023 9.78906 149.878 9.40625 149.586 9.10938C149.299 8.80729 148.896 8.65104 148.375 8.64062H146.172ZM156.523 13.1562C155.378 13.1562 154.445 12.7812 153.727 12.0312C153.008 11.276 152.648 10.2682 152.648 9.00781V8.74219C152.648 7.90365 152.807 7.15625 153.125 6.5C153.448 5.83854 153.896 5.32292 154.469 4.95312C155.047 4.57812 155.672 4.39062 156.344 4.39062C157.443 4.39062 158.297 4.7526 158.906 5.47656C159.516 6.20052 159.82 7.23698 159.82 8.58594V9.1875H154.094C154.115 10.0208 154.357 10.6953 154.82 11.2109C155.289 11.7214 155.883 11.9766 156.602 11.9766C157.112 11.9766 157.544 11.8724 157.898 11.6641C158.253 11.4557 158.562 11.1797 158.828 10.8359L159.711 11.5234C159.003 12.612 157.94 13.1562 156.523 13.1562ZM156.344 5.57812C155.76 5.57812 155.271 5.79167 154.875 6.21875C154.479 6.64062 154.234 7.23438 154.141 8H158.375V7.89062C158.333 7.15625 158.135 6.58854 157.781 6.1875C157.427 5.78125 156.948 5.57812 156.344 5.57812ZM164.133 9.39844H163.078V13H161.625V4.54688H163.078V8.125H164.023L166.867 4.54688H168.617L165.273 8.60938L168.898 13H167.062L164.133 9.39844ZM176.422 5.71875H173.586V13H172.141V5.71875H169.359V4.54688H176.422V5.71875ZM180.711 13.1562C179.565 13.1562 178.633 12.7812 177.914 12.0312C177.195 11.276 176.836 10.2682 176.836 9.00781V8.74219C176.836 7.90365 176.995 7.15625 177.312 6.5C177.635 5.83854 178.083 5.32292 178.656 4.95312C179.234 4.57812 179.859 4.39062 180.531 4.39062C181.63 4.39062 182.484 4.7526 183.094 5.47656C183.703 6.20052 184.008 7.23698 184.008 8.58594V9.1875H178.281C178.302 10.0208 178.544 10.6953 179.008 11.2109C179.477 11.7214 180.07 11.9766 180.789 11.9766C181.299 11.9766 181.732 11.8724 182.086 11.6641C182.44 11.4557 182.75 11.1797 183.016 10.8359L183.898 11.5234C183.19 12.612 182.128 13.1562 180.711 13.1562ZM180.531 5.57812C179.948 5.57812 179.458 5.79167 179.062 6.21875C178.667 6.64062 178.422 7.23438 178.328 8H182.562V7.89062C182.521 7.15625 182.323 6.58854 181.969 6.1875C181.615 5.78125 181.135 5.57812 180.531 5.57812Z" fill="white"/>
</svg>
