<svg width="127" height="16" viewBox="0 0 127 16" fill="none" xmlns="http://www.w3.org/2000/svg">
<path d="M0.0400001 7.902L7.398 0.57L8.854 2.026L4.018 6.862H14.678V8.942H3.992L8.854 13.804L7.398 15.26L0.0400001 7.902ZM23.4189 15V3.3C23.5055 3.3 23.6269 3.3 23.7829 3.3C23.9389 3.28267 24.1642 3.274 24.4589 3.274C24.7535 3.25667 25.0222 3.248 25.2649 3.248C26.5475 3.21333 27.3449 3.196 27.6569 3.196C31.0195 3.196 32.7009 4.20133 32.7009 6.212C32.7009 6.90533 32.4842 7.50333 32.0509 8.006C31.6175 8.49133 31.0542 8.786 30.3609 8.89V8.942C32.1809 9.27133 33.0909 10.19 33.0909 11.698C33.0909 13.9687 31.2969 15.104 27.7089 15.104C27.5355 15.104 26.7729 15.0867 25.4209 15.052C25.1609 15.052 24.8749 15.0433 24.5629 15.026C24.2509 15.026 24.0082 15.0173 23.8349 15C23.6615 15 23.5229 15 23.4189 15ZM27.9949 9.748H25.4989V13.336C26.7469 13.388 27.5442 13.414 27.8909 13.414C29.8842 13.414 30.8809 12.79 30.8809 11.542C30.8809 10.346 29.9189 9.748 27.9949 9.748ZM27.8129 4.886C27.3102 4.886 26.5389 4.912 25.4989 4.964V8.448H28.1249C28.8355 8.448 29.4075 8.28333 29.8409 7.954C30.2742 7.62467 30.4909 7.18267 30.4909 6.628C30.4909 5.46667 29.5982 4.886 27.8129 4.886ZM49.6204 3.3H52.3504L47.2284 8.89L52.8444 15H49.9584L44.6804 9.02L49.6204 3.3ZM44.1864 15H42.1064V3.3H44.1864V15ZM55.6796 5.77L55.1336 4.106C56.2949 3.39533 57.5949 3.04 59.0336 3.04C60.6109 3.04 61.7549 3.43 62.4656 4.21C63.1763 4.99 63.5316 6.19467 63.5316 7.824V15H61.5556V13.492C60.6369 14.6187 59.3889 15.182 57.8116 15.182C56.7369 15.182 55.8703 14.8613 55.2116 14.22C54.5529 13.5613 54.2236 12.6773 54.2236 11.568C54.2236 10.424 54.6309 9.52267 55.4456 8.864C56.2603 8.188 57.3263 7.85 58.6436 7.85C59.8743 7.85 60.8449 8.10133 61.5556 8.604C61.5556 7.28667 61.3736 6.342 61.0096 5.77C60.6456 5.198 59.9436 4.912 58.9036 4.912C57.8463 4.912 56.7716 5.198 55.6796 5.77ZM58.5396 13.31C59.7009 13.31 60.7063 12.8073 61.5556 11.802V10.32C60.8276 9.8 59.9523 9.54 58.9296 9.54C58.2189 9.54 57.6209 9.71333 57.1356 10.06C56.6676 10.3893 56.4336 10.8573 56.4336 11.464C56.4336 12.036 56.6156 12.4867 56.9796 12.816C57.3609 13.1453 57.8809 13.31 58.5396 13.31ZM69.8226 5.38H65.5326V3.3H76.1926V5.38H71.9026V15H69.8226V5.38ZM79.0898 5.77L78.5438 4.106C79.7051 3.39533 81.0051 3.04 82.4438 3.04C84.0211 3.04 85.1651 3.43 85.8758 4.21C86.5864 4.99 86.9418 6.19467 86.9418 7.824V15H84.9658V13.492C84.0471 14.6187 82.7991 15.182 81.2218 15.182C80.1471 15.182 79.2804 14.8613 78.6218 14.22C77.9631 13.5613 77.6338 12.6773 77.6338 11.568C77.6338 10.424 78.0411 9.52267 78.8558 8.864C79.6704 8.188 80.7364 7.85 82.0538 7.85C83.2844 7.85 84.2551 8.10133 84.9658 8.604C84.9658 7.28667 84.7838 6.342 84.4198 5.77C84.0558 5.198 83.3538 4.912 82.3138 4.912C81.2564 4.912 80.1818 5.198 79.0898 5.77ZM81.9498 13.31C83.1111 13.31 84.1164 12.8073 84.9658 11.802V10.32C84.2378 9.8 83.3624 9.54 82.3398 9.54C81.6291 9.54 81.0311 9.71333 80.5458 10.06C80.0778 10.3893 79.8438 10.8573 79.8438 11.464C79.8438 12.036 80.0258 12.4867 80.3898 12.816C80.7711 13.1453 81.2911 13.31 81.9498 13.31ZM100.513 15H98.4327V5.38H94.3247L94.1947 7.356C94.0561 8.968 93.8481 10.3113 93.5707 11.386C93.3107 12.4433 92.9641 13.2407 92.5307 13.778C92.1147 14.298 91.6727 14.662 91.2047 14.87C90.7367 15.0607 90.1647 15.156 89.4887 15.156L89.3327 13.128C89.5234 13.1453 89.7227 13.1193 89.9307 13.05C90.1387 12.9633 90.3641 12.79 90.6067 12.53C90.8667 12.27 91.0921 11.9233 91.2827 11.49C91.4907 11.0567 91.6727 10.45 91.8287 9.67C92.0021 8.87267 92.1147 7.96267 92.1667 6.94L92.3747 3.3H100.513V15ZM105.199 13.544C104.055 12.3653 103.483 10.9007 103.483 9.15C103.483 7.382 104.055 5.926 105.199 4.782C106.36 3.62067 107.868 3.04 109.723 3.04C111.577 3.04 113.077 3.62067 114.221 4.782C115.382 5.926 115.963 7.382 115.963 9.15C115.963 10.918 115.382 12.3827 114.221 13.544C113.077 14.688 111.577 15.26 109.723 15.26C107.885 15.26 106.377 14.688 105.199 13.544ZM106.837 6.16C106.074 6.92267 105.693 7.91933 105.693 9.15C105.693 10.3807 106.065 11.3773 106.811 12.14C107.573 12.92 108.544 13.31 109.723 13.31C110.901 13.31 111.863 12.9287 112.609 12.166C113.371 11.386 113.753 10.3807 113.753 9.15C113.753 7.954 113.371 6.95733 112.609 6.16C111.863 5.38 110.901 4.99 109.723 4.99C108.544 4.99 107.582 5.38 106.837 6.16ZM121.044 15H118.964V3.3H126.374V5.25H121.044V15Z" fill="white"/>
</svg>
